<svg fill="#afecef" id="Capa_1" enable-background="new 0 0 450.832 450.832" height="512" viewBox="0 0 450.832 450.832" width="512" xmlns="http://www.w3.org/2000/svg"><path id="path-1_103_" d="m183.151 112.713h-84.53c-7.787 0-14.088 6.301-14.088 14.088v84.529c0 7.787 6.301 14.088 14.088 14.088h84.529c7.787 0 14.088-6.301 14.088-14.088v-84.529c.001-7.786-6.3-14.088-14.087-14.088zm-14.089 84.53h-56.353v-56.353h56.353z" transform="translate(3 4)"/><path id="path-1_102_" d="m183.151 281.772h-84.53c-7.787 0-14.088 6.301-14.088 14.088v84.529c0 7.787 6.301 14.088 14.088 14.088h84.529c7.787 0 14.088-6.301 14.088-14.088v-84.529c.001-7.787-6.3-14.088-14.087-14.088zm-14.089 84.529h-56.353v-56.353h56.353z" transform="translate(3 10)"/><path d="m267.68 225.419h84.529c7.787 0 14.088-6.301 14.088-14.088v-84.529c0-7.787-6.301-14.088-14.088-14.088h-84.529c-7.787 0-14.088 6.301-14.088 14.088v84.529c0 7.787 6.301 14.088 14.088 14.088zm14.088-84.529h56.353v56.353h-56.353z"/><path d="m441.967 85.541-211.323-84.529c-3.357-1.348-7.099-1.348-10.456 0l-211.324 84.529c-6.274 2.518-9.878 9.122-8.613 15.753 1.279 6.631 7.085 11.419 13.841 11.419h14.088v324.029c0 7.787 6.301 14.088 14.088 14.088h366.294c7.787 0 14.088-6.301 14.088-14.088v-324.029h14.088c6.755 0 12.561-4.788 13.841-11.419 1.267-6.631-2.338-13.235-8.612-15.753zm-160.198 337.115v-112.706h56.353v112.706zm112.705-324.03v324.029h-28.176v-126.793c0-7.787-6.301-14.088-14.088-14.088h-84.53c-7.787 0-14.088 6.301-14.088 14.088v126.794h-197.235v-324.03c0-.578-.028-1.142-.096-1.692l169.155-67.662 169.155 67.662c-.069.551-.096 1.115-.097 1.692z"/></svg>